<?xml version="1.0" encoding="iso-8859-1"?>
<!-- Generator: Adobe Illustrator 18.1.1, SVG Export Plug-In . SVG Version: 6.00 Build 0)  -->
<svg version="1.1" id="Capa_1" xmlns="http://www.w3.org/2000/svg" xmlns:xlink="http://www.w3.org/1999/xlink" x="0px" y="0px"
	 viewBox="0 0 43.417 43.417" style="enable-background:new 0 0 43.417 43.417;" xml:space="preserve">
<g>
	<path style="fill:#010002;" d="M12.408,10.884H0.625C0.28,10.884,0,11.164,0,11.509v27.918c0,0.345,0.28,0.625,0.625,0.625h11.783
		c0.345,0,0.625-0.28,0.625-0.625V11.509C13.033,11.164,12.753,10.884,12.408,10.884z M11.783,38.802H1.25V12.134h10.533V38.802z"/>
	<path style="fill:#010002;" d="M37.202,11.884c-0.077-0.326-0.433-0.538-0.752-0.464l-8.721,2.081
		c-0.067,0.016-0.125,0.049-0.18,0.083V3.312c0-0.345-0.28-0.625-0.625-0.625H15.14c-0.345,0-0.625,0.28-0.625,0.625v36.115
		c0,0.345,0.28,0.625,0.625,0.625h11.783c0.345,0,0.625-0.28,0.625-0.625V15.438l5.915,24.811c0.039,0.161,0.138,0.299,0.281,0.388
		c0.098,0.061,0.211,0.093,0.327,0.093c0.047,0,0.094-0.007,0.145-0.017l8.722-2.081c0.334-0.08,0.542-0.418,0.462-0.754
		L37.202,11.884z M26.298,38.802H15.765V3.937h10.533V38.802z M34.534,39.351l-5.908-24.78l7.504-1.788l5.908,24.778L34.534,39.351z
		"/>
	<path style="fill:#010002;" d="M6.516,29.89c2.228,0,4.04-1.812,4.04-4.039c0-2.229-1.812-4.041-4.04-4.041
		c-2.227,0-4.039,1.812-4.039,4.041C2.477,28.078,4.289,29.89,6.516,29.89z M6.516,23.06c1.539,0,2.79,1.252,2.79,2.791
		c0,1.538-1.252,2.789-2.79,2.789s-2.789-1.251-2.789-2.789C3.727,24.312,4.978,23.06,6.516,23.06z"/>
	<path style="fill:#010002;" d="M3.102,38.259h6.83c0.345,0,0.625-0.28,0.625-0.625v-2.562c0-0.345-0.28-0.625-0.625-0.625h-6.83
		c-0.345,0-0.625,0.28-0.625,0.625v2.562C2.477,37.979,2.757,38.259,3.102,38.259z M3.727,35.696h5.58v1.312h-5.58
		C3.727,37.008,3.727,35.696,3.727,35.696z"/>
	<path style="fill:#010002;" d="M3.102,18.024h6.83c0.345,0,0.625-0.28,0.625-0.625v-2.56c0-0.345-0.28-0.625-0.625-0.625h-6.83
		c-0.345,0-0.625,0.28-0.625,0.625v2.56C2.477,17.744,2.757,18.024,3.102,18.024z M3.727,15.464h5.58v1.31h-5.58
		C3.727,16.774,3.727,15.464,3.727,15.464z"/>
	<path style="fill:#010002;" d="M21.032,27.073c2.227,0,4.04-1.812,4.04-4.039s-1.812-4.039-4.04-4.039s-4.04,1.812-4.04,4.039
		S18.804,27.073,21.032,27.073z M21.032,20.245c1.538,0,2.79,1.251,2.79,2.789s-1.252,2.789-2.79,2.789
		c-1.538,0-2.79-1.251-2.79-2.789S19.493,20.245,21.032,20.245z"/>
	<path style="fill:#010002;" d="M17.617,38.259h6.829c0.345,0,0.625-0.28,0.625-0.625v-2.562c0-0.345-0.28-0.625-0.625-0.625h-6.829
		c-0.345,0-0.625,0.28-0.625,0.625v2.562C16.992,37.979,17.272,38.259,17.617,38.259z M18.242,35.696h5.579v1.312h-5.579V35.696z"/>
	<path style="fill:#010002;" d="M17.617,9.06h6.829c0.345,0,0.625-0.28,0.625-0.625V5.874c0-0.345-0.28-0.625-0.625-0.625h-6.829
		c-0.345,0-0.625,0.28-0.625,0.625v2.561C16.992,8.779,17.272,9.06,17.617,9.06z M18.242,6.499h5.579V7.81h-5.579V6.499z"/>
	<path style="fill:#010002;" d="M34.673,23.299c-0.738,0.177-1.364,0.63-1.763,1.277c-0.398,0.647-0.521,1.411-0.345,2.149
		c0.307,1.287,1.443,2.186,2.763,2.186c0.224,0,0.448-0.026,0.665-0.08c1.525-0.365,2.47-1.901,2.105-3.424
		c-0.302-1.266-1.471-2.185-2.779-2.185C35.102,23.223,34.884,23.248,34.673,23.299z M36.883,25.698
		c0.099,0.412,0.03,0.839-0.193,1.201c-0.224,0.363-0.574,0.617-0.989,0.717c-0.12,0.029-0.244,0.044-0.367,0.044
		c-0.73,0-1.383-0.516-1.553-1.226c-0.099-0.413-0.03-0.842,0.194-1.205c0.224-0.362,0.574-0.616,0.987-0.714
		c0.122-0.029,0.247-0.044,0.371-0.044C36.073,24.472,36.71,24.976,36.883,25.698z"/>
	<path style="fill:#010002;" d="M34.406,35.061c-0.087,0.14-0.114,0.312-0.076,0.474l0.595,2.492
		c0.039,0.161,0.138,0.299,0.281,0.388c0.098,0.06,0.211,0.093,0.327,0.093c0.047,0,0.094-0.007,0.146-0.018l5.064-1.211
		c0.335-0.08,0.542-0.417,0.462-0.752l-0.595-2.492c-0.078-0.33-0.425-0.541-0.753-0.462l-5.065,1.208
		C34.63,34.819,34.492,34.919,34.406,35.061z M39.54,34.933l0.305,1.276l-3.849,0.919l-0.305-1.276L39.54,34.933z"/>
	<path style="fill:#010002;" d="M35.166,14.139l-5.065,1.208c-0.163,0.039-0.301,0.139-0.387,0.28
		c-0.086,0.14-0.114,0.312-0.076,0.474l0.595,2.492c0.067,0.282,0.317,0.48,0.607,0.48c0.051,0,0.101-0.006,0.146-0.018l5.065-1.209
		c0.335-0.08,0.542-0.417,0.462-0.752l-0.594-2.492C35.84,14.273,35.498,14.063,35.166,14.139z M31.303,17.694l-0.305-1.276
		l3.849-0.917l0.305,1.276L31.303,17.694z"/>
</g>
<g>
</g>
<g>
</g>
<g>
</g>
<g>
</g>
<g>
</g>
<g>
</g>
<g>
</g>
<g>
</g>
<g>
</g>
<g>
</g>
<g>
</g>
<g>
</g>
<g>
</g>
<g>
</g>
<g>
</g>
</svg>
