<svg id="Layer_1" data-name="Layer 1" xmlns="http://www.w3.org/2000/svg" viewBox="0 0 735.31 427">
    <defs>
        <style>.cls-1{fill:#1d4354;}</style>
    </defs>
    <path class="cls-1" d="M298.45,608.14c17.53,0,34-9.38,42-22.94h2c-8.21,16.91-26.66,28.3-48.93,28.3-33.6,0-61.17-25.62-61.17-63.29s27.75-63.29,65.55-63.29c18.44,0,34.51,6.19,44.55,15.4L333,531.12h-2L328.21,499c-8-6.86-17.89-10.21-28.85-10.21-26.48,0-47.84,19.59-47.84,59.61C251.52,588.55,272.88,608.14,298.45,608.14Z" transform="translate(-232.35 -186.5)" />
    <path class="cls-1" d="M382.26,609.81v1.85H351.58v-1.85h.18c3.47,0,5.66-2,5.66-5V495.62c0-3.18-2.19-5.19-5.66-5.19h-.18v-1.67h30.68v1.67h-.19c-3.28,0-5.66,2-5.66,5.19v53.75h42V495.62c0-3.18-2.19-5.19-5.48-5.19h-.18v-1.67h30.49v1.67h-.18c-3.28,0-5.48,2-5.48,5.19V604.79c0,3,2.2,5,5.48,5h.18v1.85H412.75v-1.85h.18c3.29,0,5.48-2,5.48-5V551.05h-42v53.74c0,3,2.38,5,5.66,5Z" transform="translate(-232.35 -186.5)" />
    <path class="cls-1" d="M551.16,609.81v1.85H519.57v-1.85h.18c3.29,0,4.93-1.84,3.83-4.68l-9.13-26.29H466.8l-9.13,26.29c-.92,2.84.73,4.68,3.83,4.68h.18v1.85H448.35v-1.85h.19a7.45,7.45,0,0,0,7.3-4.85l33.42-97.78-4-11.72a7.67,7.67,0,0,0-7.12-5h-.19v-1.67h25.39L543.67,605c.91,3,3.83,4.85,7.3,4.85ZM513.91,577l-23.56-67-23,67Z" transform="translate(-232.35 -186.5)" />
    <path class="cls-1" d="M569.6,609.81v1.85H556.27v-1.85h.18c3.47,0,5.66-1.84,5.66-5V495.62c0-3.18-2.19-5.19-5.66-5.19h-.18v-1.67H584L640.26,579V495.62c0-3.18-2.19-5.19-5.48-5.19h-.18v-1.67h13.33v1.67h-.18c-3.47,0-5.48,2-5.48,5.19v116h-3.65L563.94,491.94V604.79c0,3.18,2.37,5,5.47,5Z" transform="translate(-232.35 -186.5)" />
    <path class="cls-1" d="M719.69,613.5c-33.6,0-61.17-25.62-61.17-63.29s27.75-63.29,65.55-63.29c18.44,0,34.51,6.19,44.55,15.4l-9.49,28.8h-2L754.38,499c-8-6.86-17.89-10.21-28.85-10.21-26.47,0-47.84,19.59-47.84,59.61,0,40.18,21.37,59.77,46.93,59.77a50,50,0,0,0,24.83-6.53V563.27c0-6.7-4.93-11.39-12.23-11.39h-1.1v-1.67h32.5v61.45l-6.39-2.35a28.18,28.18,0,0,0-8.76-1.34,47.34,47.34,0,0,0-14.61,2.51A64.09,64.09,0,0,1,719.69,613.5Z" transform="translate(-232.35 -186.5)" />
    <path class="cls-1" d="M866.13,592.4h2l-3.84,19.26H782.14v-1.85h.18c3.28,0,5.66-2,5.66-5V495.62c0-3-2.38-5.19-5.66-5.19h-.18v-1.67h78.33L864.3,508h-2l-3.11-5.86c-3.83-7-12.05-11.72-20.63-11.72H807v58.94h20.08c8.77,0,14.25-5.36,14.25-13.06v-4.52h2L849,568.63h-1.83l-1.64-5c-2.56-7.53-9.68-12.55-18.45-12.55H807v58.76h35.42c8.77,0,17-4.52,20.64-11.55Z" transform="translate(-232.35 -186.5)" />
    <path class="cls-1" d="M967.65,606.3v1.84c-1.82,3.52-6.39,5.36-10.95,5.36-11.69,0-18.81-12.22-17-29.13,2.19-20.93-10.6-25.79-19.36-26.29H901.19v50.06a1.81,1.81,0,0,0,2,1.67H907v1.85H876.35v-1.85h3.84a1.82,1.82,0,0,0,2-1.67V492.28a2,2,0,0,0-2-1.85h-3.84v-1.67h52.23c20.27,0,33.78,12.22,33.78,32.31,0,17.42-10.05,32.49-26.11,36.17,16.43,4.19,24.1,20.76,23.92,34.83C960.17,602.45,964.37,606.3,967.65,606.3ZM901.19,490.43v65.81h10.22c19.36,0,31.77-15.07,31.77-34.5,0-19.59-12.78-31.31-31.77-31.31Z" transform="translate(-232.35 -186.5)" />
    <path class="cls-1" d="M652.38,441.08V332.84c-8.5,18-21.58,43-38.49,67.07q-2.45,3.48-4.9,6.81v34.36c0,11.37-8.26,19.32-21.07,19.32h-.41v4.17h86.75V460.4h-.4C661.05,460.4,652.38,452.45,652.38,441.08Z" transform="translate(-232.35 -186.5)" />
    <path class="cls-1" d="M793.67,460.4c-12.4,0-21.07-7.95-21.07-19.32v-122c0-35.61-21.48-57.58-58.25-57.2-33,0-51.06,17.5-59.66,37.18-.87,2-1.63,4-2.31,6V186.5H587.51v3.78h.41c12.81,0,21.07,7.58,21.07,19.71V387.15A259.79,259.79,0,0,1,582.48,421a154,154,0,0,1-20.43,18.43c-11.94,8.87-21.87,12.84-29,14.57l-.07,0a67,67,0,0,1-12.22,1.08,55.47,55.47,0,0,1-6.08-.33c-15.39-1.7-51.07-12-63.32-73.93-12.81-65.16,14.87-114.79,59.49-114.79,19.41,0,35.52,9.1,44.21,22.36l7,54.93h4.13l12.79-50c-12-18.18-37.17-31.44-69.82-31.44-59.89-.38-103.27,42.81-103.27,103,0,61,45,103.81,100.39,103.81,1.69,0,3.37,0,5-.12q3.24-.17,6.31-.52l-.15.64a85,85,0,0,0,8.34-2c13.8-4,26.79-11.56,38.83-21.22l0,0c16.7-13.41,31.59-30.94,44.31-49.05,26.44-37.65,43.47-77.8,47.83-88.59,0-.07.06-.15.1-.22.29-.75.52-1.33.7-1.76.07-.19.14-.39.23-.58l.09-.24c.87-2.06,1.82-4.07,2.87-6,9.61-18,25.87-30.36,41.56-30.36,27.26-.38,26.84,37.12,26.84,84.1v88.27c0,11.37-8.67,19.32-21.07,19.32h-.82v4.17h86.75V460.4Z" transform="translate(-232.35 -186.5)" />
</svg>