<?xml version="1.0" encoding="iso-8859-1"?>
<!-- Generator: Adobe Illustrator 19.0.0, SVG Export Plug-In . SVG Version: 6.00 Build 0)  -->
<svg version="1.1" id="Layer_1" xmlns="http://www.w3.org/2000/svg" xmlns:xlink="http://www.w3.org/1999/xlink" x="0px" y="0px"
	 viewBox="0 0 512 512" style="enable-background:new 0 0 512 512;" xml:space="preserve">
<g>
	<g>
		<path d="M137.904,126.464c-34.512,0-62.592,28.656-62.592,63.872s28.08,63.872,62.592,63.872
			c34.512,0,62.592-28.656,62.592-63.872S172.416,126.464,137.904,126.464z M137.904,238.192c-25.696,0-46.592-21.472-46.592-47.872
			s20.896-47.872,46.592-47.872c25.696,0,46.592,21.472,46.592,47.872S163.6,238.192,137.904,238.192z"/>
	</g>
</g>
<g>
	<g>
		<path d="M198.4,269.632l-5.136-1.584l-55.36,42.608l-55.36-42.608l-5.136,1.584C-0.08,293.344,0,374.048,0,374.848l0.128,10.704
			H275.68l0.128-10.704C275.808,374.048,275.888,293.344,198.4,269.632z M16.272,369.552c1.44-16.464,10.144-65.984,63.104-83.744
			l48.768,37.536l9.76,7.504l9.76-7.504l48.768-37.536c53.088,17.792,61.712,67.504,63.104,83.744H16.272z"/>
	</g>
</g>
<g>
	<g>
		<rect x="343.44" y="118.096" width="168.56" height="16"/>
	</g>
</g>
<g>
	<g>
		<rect x="343.44" y="183.04" width="168.56" height="16"/>
	</g>
</g>
<g>
	<g>
		<rect x="343.44" y="248" width="168.56" height="16"/>
	</g>
</g>
<g>
	<g>
		<rect x="343.44" y="312.96" width="168.56" height="16"/>
	</g>
</g>
<g>
	<g>
		<rect x="343.44" y="377.904" width="168.56" height="16"/>
	</g>
</g>
<g>
</g>
<g>
</g>
<g>
</g>
<g>
</g>
<g>
</g>
<g>
</g>
<g>
</g>
<g>
</g>
<g>
</g>
<g>
</g>
<g>
</g>
<g>
</g>
<g>
</g>
<g>
</g>
<g>
</g>
</svg>
