<?xml version="1.0" encoding="iso-8859-1"?>
<!-- Generator: Adobe Illustrator 19.0.0, SVG Export Plug-In . SVG Version: 6.00 Build 0)  -->
<svg version="1.1" id="Capa_1" xmlns="http://www.w3.org/2000/svg" xmlns:xlink="http://www.w3.org/1999/xlink" x="0px" y="0px"
	 viewBox="0 0 489.901 489.901" style="enable-background:new 0 0 489.901 489.901;" xml:space="preserve">
<g>
	<path d="M469.2,142.4h-79.1c-11.4,0-20.8,9.4-20.8,20.8V184h-98.8V73.8h51c11.4,0,20.8-9.4,20.8-20.8c0-11.4-9.4-20.8-20.8-20.8
		H177.9c-11.4,0-20.8,9.4-20.8,20.8s9.4,20.8,20.8,20.8h51v110.3H119.6v-20.8c0-11.4-9.4-20.8-20.8-20.8h-78
		C9.4,142.5,0,151.9,0,163.3v273.6c0,11.4,9.4,20.8,20.8,20.8h78c11.4,0,20.8-9.4,20.8-20.8v-20.8h249.7v20.8
		c0,11.4,9.4,20.8,20.8,20.8h78c11.4,0,20.8-9.4,21.8-19.8V163.2C490,151.8,480.6,142.4,469.2,142.4z M448.4,417.1h-37.5v-21.8
		c0-11.4-9.4-20.8-20.8-20.8H99.9c-11.4,0-20.8,9.4-20.8,20.8v20.8H40.6v-233H78v20.8c0,11.4,9.4,20.8,20.8,20.8h290.3
		c11.4,0,20.8-9.4,20.8-20.8v-20.8h38.5L448.4,417.1L448.4,417.1z"/>
</g>
<g>
</g>
<g>
</g>
<g>
</g>
<g>
</g>
<g>
</g>
<g>
</g>
<g>
</g>
<g>
</g>
<g>
</g>
<g>
</g>
<g>
</g>
<g>
</g>
<g>
</g>
<g>
</g>
<g>
</g>
</svg>
