<svg version="1.1" id="Layer_1" xmlns="http://www.w3.org/2000/svg" xmlns:xlink="http://www.w3.org/1999/xlink" x="0px" y="0px"
	 viewBox="0 0 512 512" style="enable-background:new 0 0 512 512;" xml:space="preserve">
<g transform="translate(1 1)">
	<g>
		<g>
			<path d="M154.733,209.773l25.6,25.6c1.707,1.707,3.413,2.56,5.973,2.56s4.267-0.853,5.973-2.56l2.56-2.56V280.6
				c0,5.12,3.413,8.533,8.533,8.533h102.4c5.12,0,8.533-3.413,8.533-8.533v-47.787l2.56,2.56c1.707,1.707,3.413,2.56,5.973,2.56
				s4.267-0.853,5.973-2.56l25.6-25.6c1.707-1.707,2.56-3.413,2.56-5.973s-0.853-4.267-2.56-5.973l-93.867-93.867
				c-1.707-1.707-3.413-2.56-5.973-2.56s-4.267,0.853-5.973,2.56l-93.867,93.867C151.32,201.24,151.32,206.36,154.733,209.773z
				 M297.24,272.067h-85.333v-56.32l42.667-42.667l42.667,42.667V272.067z M254.573,121.88l81.92,81.92l-13.653,13.653
				l-11.093-11.093l-51.2-51.2c-0.853-1.707-2.56-2.56-4.267-2.56c0,0-0.853,0-1.707,0c-2.56,0-4.267,0.853-5.973,2.56l-51.2,51.2
				l-11.093,11.093L172.653,203.8L254.573,121.88z"/>
			<path d="M509.72,122.733c-1.707-2.56-4.267-4.267-7.68-4.267H350.064c-23.419-26.2-57.486-42.667-95.491-42.667
				c-37.841,0-71.78,16.567-95.189,42.667H7.107c-3.413,0-5.973,1.707-6.827,5.12c-1.707,2.56-1.707,5.973,0,8.533l34.133,51.2
				l32.103,48.154c0.17,1.073,0.557,2.116,1.177,3.046c14.513,20.623,33.825,36.44,57.298,45.655L94.147,385.56
				c-1.707,6.827,0.853,14.507,6.827,18.773c6.827,4.267,14.507,4.267,20.48,0l39.253-28.16c2.56-1.707,5.973-2.56,8.533-1.707
				c2.56,0.853,5.12,3.413,5.973,5.973l16.213,41.813c2.56,7.68,9.387,11.947,17.067,11.947c0.853,0,0.853,0,0.853,0
				c8.533-0.853,14.507-5.973,17.067-13.653l26.156-88.772c0.668,0.01,1.334,0.025,2.004,0.025c0.592,0,1.18-0.014,1.769-0.022
				l26.391,88.769c2.56,7.68,9.387,13.653,17.067,13.653h0.853c7.68,0,13.653-4.267,17.067-11.947l16.213-41.813
				c0.853-3.413,3.413-5.12,5.973-5.973c3.413-0.853,5.973,0,8.533,1.707l39.253,29.013c6.827,4.267,14.507,4.267,20.48,0
				s8.533-11.947,6.827-18.773l-31.516-107.678c22.701-8.71,42.015-23.511,55.793-42.808c0.725-0.445,1.45-0.923,2.176-1.407
				l34.133-51.2c0.496-0.744,0.831-1.564,1.038-2.411l33.095-49.643C511.427,128.707,511.427,125.293,509.72,122.733z
				 M254.573,92.867c52.735,0,96.667,36.464,108.058,85.646c-0.024,0.735,0.063,1.49,0.316,2.247c1.707,7.68,2.56,15.36,2.56,23.04
				c0,2.83-0.118,5.776-0.349,8.752c-0.037,0.472-0.083,0.943-0.126,1.414c-0.036,0.4-0.071,0.8-0.111,1.201
				c-0.276,2.672-0.649,5.317-1.114,7.933c-0.823,1.026-1.421,2.281-1.713,3.741c-0.853,5.973-2.56,11.947-5.12,17.92
				c-0.381,1.144-0.583,2.112-0.623,2.992c-17.048,39.162-56.109,66.981-101.777,66.981c-1.916,0-3.82-0.048-5.712-0.143
				c-0.828-0.414-1.822-0.71-2.821-0.71c-40.288-2.467-75.814-27.912-92.856-64.877c-1.152-2.59-2.205-5.234-3.16-7.925
				c-1.263-4.419-2.525-8.838-3.788-13.257c-0.068-0.31-0.136-0.62-0.202-0.93c-0.084-0.394-0.165-0.789-0.244-1.187
				c-0.119-0.598-0.234-1.198-0.343-1.799c-0.067-0.369-0.131-0.739-0.194-1.11c-0.086-0.502-0.17-1.005-0.249-1.509
				c-0.11-0.706-0.214-1.414-0.31-2.125c-0.023-0.166-0.047-0.332-0.069-0.498c-0.656-5.011-0.986-10.1-0.986-14.862
				c0-0.987,0.014-1.947,0.037-2.894c0.043-1.695,0.129-3.379,0.247-5.054c0.018-0.256,0.032-0.516,0.053-0.771
				c0.029-0.375,0.066-0.747,0.099-1.121c0.328-3.619,0.836-7.173,1.54-11.008c0.561-0.673,1.046-1.407,1.437-2.19
				c3.413-17.92,11.947-34.133,23.04-47.787c0.554-0.831,1.015-1.752,1.331-2.734C191.722,107.297,221.404,92.867,254.573,92.867z
				 M146.2,135.533c-6.827,10.24-11.947,22.187-15.36,34.133H45.507L23.32,135.533H146.2z M127.427,186.733
				c-0.853,5.973-0.853,11.947-0.853,17.067s0,11.093,0.853,17.067H79.64l-22.187-34.133H127.427z M93.293,237.933h37.868
				c0.943,3.431,2.019,6.805,3.233,10.113l-4.424,15.116C115.823,257.209,103.327,248.803,93.293,237.933z M210.2,416.28
				c-0.853,0-0.853,0.853-1.707,0.853c-0.853,0-1.707-0.853-1.707-0.853l-16.213-41.813c-2.56-8.533-9.387-13.653-17.067-16.213
				c-2.56-0.853-5.12-0.853-7.68-0.853c-5.12,0-10.24,1.707-15.36,5.12l-39.253,28.16l34.822-118.904
				c19.443,31.033,51.828,53.08,89.668,58.644L210.2,416.28z M358.68,362.52c-6.827-5.12-15.36-6.827-23.04-4.267
				c-7.68,2.56-13.653,8.533-17.067,16.213L302.36,416.28c0,0,0,0.853-1.707,0.853s-1.707-0.853-1.707-0.853l-25.503-85.86
				c37.827-5.562,70.203-27.596,89.648-58.612l1.562,5.379c0.051,0.154,0.115,0.294,0.172,0.442l33.108,113.051L358.68,362.52z
				 M378.954,263.257l-4.343-14.839c1.27-3.427,2.396-6.925,3.374-10.485h37.868C405.767,248.86,393.193,257.298,378.954,263.257z
				 M430.083,220.013h-48.255c0.737-5.687,0.746-11.337,0.746-16.213c0-5.973,0-11.093-0.853-17.067h70.827L430.083,220.013z
				 M463.64,169.667h-85.333c-3.413-11.947-8.533-23.893-15.36-34.133H486.68L463.64,169.667z"/>
		</g>
	</g>
</g>
<g>
</g>
<g>
</g>
<g>
</g>
<g>
</g>
<g>
</g>
<g>
</g>
<g>
</g>
<g>
</g>
<g>
</g>
<g>
</g>
<g>
</g>
<g>
</g>
<g>
</g>
<g>
</g>
<g>
</g>
</svg>
